<mxfile host="Electron" agent="Mozilla/5.0 (Macintosh; Intel Mac OS X 10_15_7) AppleWebKit/537.36 (KHTML, like Gecko) draw.io/27.0.9 Chrome/134.0.6998.205 Electron/35.4.0 Safari/537.36" version="27.0.9">
  <diagram name="Page-1" id="nhZ4vD28O06Omo82XQmb">
    <mxGraphModel dx="1298" dy="808" grid="1" gridSize="10" guides="1" tooltips="1" connect="1" arrows="1" fold="1" page="1" pageScale="1" pageWidth="850" pageHeight="1100" math="0" shadow="0">
      <root>
        <mxCell id="0" />
        <mxCell id="1" value="containers" style="" parent="0" />
        <mxCell id="komrigK7Vt0HTuFKPwD9-1" value="" style="rounded=0;whiteSpace=wrap;html=1;labelBackgroundColor=none;fillColor=none;" vertex="1" parent="1">
          <mxGeometry x="30" y="100" width="540" height="280" as="geometry" />
        </mxCell>
        <mxCell id="komrigK7Vt0HTuFKPwD9-2" value="&lt;b&gt;FRONTEND&lt;/b&gt;" style="text;html=1;align=center;verticalAlign=middle;whiteSpace=wrap;rounded=0;labelBackgroundColor=none;" vertex="1" parent="1">
          <mxGeometry x="30" y="100" width="90" height="30" as="geometry" />
        </mxCell>
        <mxCell id="komrigK7Vt0HTuFKPwD9-4" value="" style="rounded=0;whiteSpace=wrap;html=1;labelBackgroundColor=none;fillColor=none;" vertex="1" parent="1">
          <mxGeometry x="660" y="100" width="540" height="280" as="geometry" />
        </mxCell>
        <mxCell id="komrigK7Vt0HTuFKPwD9-5" value="&lt;b&gt;BACKEND&lt;/b&gt;" style="text;html=1;align=center;verticalAlign=middle;whiteSpace=wrap;rounded=0;labelBackgroundColor=none;" vertex="1" parent="1">
          <mxGeometry x="660" y="100" width="90" height="30" as="geometry" />
        </mxCell>
        <mxCell id="komrigK7Vt0HTuFKPwD9-6" value="" style="rounded=0;whiteSpace=wrap;html=1;labelBackgroundColor=none;fillColor=none;" vertex="1" parent="1">
          <mxGeometry x="660" y="440" width="540" height="280" as="geometry" />
        </mxCell>
        <mxCell id="komrigK7Vt0HTuFKPwD9-7" value="&lt;b&gt;SERVICIOS&lt;/b&gt;" style="text;html=1;align=center;verticalAlign=middle;whiteSpace=wrap;rounded=0;labelBackgroundColor=none;" vertex="1" parent="1">
          <mxGeometry x="660" y="440" width="90" height="30" as="geometry" />
        </mxCell>
        <mxCell id="komrigK7Vt0HTuFKPwD9-9" value="" style="rounded=0;whiteSpace=wrap;html=1;labelBackgroundColor=none;fillColor=none;" vertex="1" parent="1">
          <mxGeometry x="1310" y="440" width="540" height="280" as="geometry" />
        </mxCell>
        <mxCell id="komrigK7Vt0HTuFKPwD9-10" value="&lt;b&gt;INTEGRACIONES&lt;/b&gt;" style="text;html=1;align=center;verticalAlign=middle;whiteSpace=wrap;rounded=0;labelBackgroundColor=none;" vertex="1" parent="1">
          <mxGeometry x="1310" y="440" width="120" height="30" as="geometry" />
        </mxCell>
        <mxCell id="komrigK7Vt0HTuFKPwD9-11" value="Usuario" style="html=1;verticalLabelPosition=bottom;align=center;labelBackgroundColor=#ffffff;verticalAlign=top;strokeWidth=2;strokeColor=#0080F0;shadow=0;dashed=0;shape=mxgraph.ios7.icons.user;" vertex="1" parent="1">
          <mxGeometry x="216.62" y="780" width="80" height="80" as="geometry" />
        </mxCell>
        <mxCell id="komrigK7Vt0HTuFKPwD9-13" value="Tableta" style="verticalLabelPosition=bottom;html=1;verticalAlign=top;align=center;shape=mxgraph.azure.tablet;pointerEvents=1;" vertex="1" parent="1">
          <mxGeometry x="200" y="622" width="90" height="70" as="geometry" />
        </mxCell>
        <mxCell id="komrigK7Vt0HTuFKPwD9-14" value="Computadora Personal" style="shape=mxgraph.signs.tech.computer;html=1;pointerEvents=1;verticalLabelPosition=bottom;verticalAlign=top;align=center;" vertex="1" parent="1">
          <mxGeometry x="320" y="622" width="98" height="98" as="geometry" />
        </mxCell>
        <mxCell id="komrigK7Vt0HTuFKPwD9-15" value="TelÃ©fono Inteligente" style="html=1;verticalLabelPosition=bottom;align=center;labelBackgroundColor=#ffffff;verticalAlign=top;strokeWidth=2;shadow=0;dashed=0;shape=mxgraph.ios7.icons.smartphone;" vertex="1" parent="1">
          <mxGeometry x="120" y="622" width="40" height="70" as="geometry" />
        </mxCell>
        <mxCell id="komrigK7Vt0HTuFKPwD9-24" value="Navegador Web" style="sketch=0;pointerEvents=1;shadow=0;dashed=0;html=1;aspect=fixed;labelPosition=center;verticalLabelPosition=bottom;verticalAlign=top;align=center;outlineConnect=0;shape=mxgraph.vvd.web_browser;" vertex="1" parent="1">
          <mxGeometry x="193.24" y="460" width="126.76" height="90" as="geometry" />
        </mxCell>
        <mxCell id="komrigK7Vt0HTuFKPwD9-8" value="components" parent="0" />
      </root>
    </mxGraphModel>
  </diagram>
</mxfile>
